<svg xmlns="http://www.w3.org/2000/svg" version="1.1" xmlns:xlink="http://www.w3.org/1999/xlink" xmlns:svgjs="http://svgjs.dev/svgjs" width="1000" height="625" viewBox="0 0 1000 625"><g transform="matrix(1,0,0,1,0,0)"><svg viewBox="0 0 576 360" data-background-color="#ffffff" preserveAspectRatio="xMidYMid meet" height="625" width="1000" xmlns="http://www.w3.org/2000/svg" xmlns:xlink="http://www.w3.org/1999/xlink"><g id="tight-bounds" transform="matrix(1,0,0,1,0,0)"><svg viewBox="0 0 576 360" height="360" width="576"><g><svg></svg></g><g><svg viewBox="0 0 576 360" height="360" width="576"><g><path d="M132.115 90l155.885-90 155.885 90v180l-155.885 90-155.885-90z" fill="#6b00ff" fill-rule="nonzero" stroke="none" stroke-width="1" stroke-linecap="butt" stroke-linejoin="miter" stroke-miterlimit="10" stroke-dasharray="" stroke-dashoffset="0" font-family="none" font-weight="none" font-size="none" text-anchor="none" style="mix-blend-mode: normal" data-fill-palette-color="tertiary"></path></g><g transform="matrix(1,0,0,1,214.4560669456067,99)"><svg viewBox="0 0 147.0878661087866 162" height="162" width="147.0878661087866"><g><svg viewBox="0 0 147.0878661087866 162" height="162" width="147.0878661087866"><g><svg viewBox="0 0 147.0878661087866 162" height="162" width="147.0878661087866"><g><svg viewBox="0 0 147.0878661087866 162" height="162" width="147.0878661087866"><g id="textblocktransform"><svg viewBox="0 0 147.0878661087866 162" height="162" width="147.0878661087866" id="textblock"><g><svg viewBox="0 0 147.0878661087866 162" height="162" width="147.0878661087866"><g transform="matrix(1,0,0,1,0,0)"><svg width="147.0878661087866" viewBox="3.54 -35.01 31.79 35.01" height="162" data-palette-color="#ffffff"><path d="M32.47-20.7L32.47-14.31 12.43-14.31 12.43-20.7 32.47-20.7ZM35.33-6.35L35.33 0 12.43 0Q11.11 0 9.55-0.46 7.98-0.93 6.65-1.99 5.32-3.05 4.43-4.75 3.54-6.45 3.54-8.91L3.54-8.91 3.54-31.81Q3.54-32.47 3.78-33.06 4.03-33.64 4.46-34.08 4.88-34.52 5.47-34.77 6.05-35.01 6.74-35.01L6.74-35.01 35.33-35.01 35.33-28.66 9.89-28.66 9.89-8.91Q9.89-7.67 10.55-7.01 11.21-6.35 12.48-6.35L12.48-6.35 35.33-6.35Z" opacity="1" transform="matrix(1,0,0,1,0,0)" fill="#ffffff" class="undefined-text-0" data-fill-palette-color="quaternary" id="text-0"></path></svg></g></svg></g></svg></g></svg></g></svg></g></svg></g></svg></g></svg></g><defs></defs></svg><rect width="576" height="360" fill="none" stroke="none" visibility="hidden"></rect></g></svg></g></svg>