<svg xmlns="http://www.w3.org/2000/svg" xmlns:xlink="http://www.w3.org/1999/xlink" width="500" zoomAndPan="magnify" viewBox="0 0 375 374.999991" height="500" preserveAspectRatio="xMidYMid meet" version="1.0"><defs><g/><clipPath id="0de005b2ec"><path d="M 0 25.226562 L 375 25.226562 L 375 349.976562 L 0 349.976562 Z M 0 25.226562 " clip-rule="nonzero"/></clipPath><clipPath id="2620193e07"><path d="M 53 33 L 322 33 L 322 342 L 53 342 Z M 53 33 " clip-rule="nonzero"/></clipPath><clipPath id="2ee5368241"><path d="M 121.140625 -5.335938 L 387.726562 149.421875 L 253.675781 380.335938 L -12.910156 225.574219 Z M 121.140625 -5.335938 " clip-rule="nonzero"/></clipPath><clipPath id="026f527e8e"><path d="M 121.140625 -5.335938 L 387.726562 149.421875 L 253.675781 380.335938 L -12.910156 225.574219 Z M 121.140625 -5.335938 " clip-rule="nonzero"/></clipPath><clipPath id="530ca6d31a"><path d="M 58.230469 75.625 L 316.980469 75.625 L 316.980469 299.125 L 58.230469 299.125 Z M 58.230469 75.625 " clip-rule="nonzero"/></clipPath></defs><g clip-path="url(#0de005b2ec)"><path fill="#5e17eb" d="M 274.667969 36.476562 L 361.835938 187.601562 L 274.667969 338.726562 L 100.332031 338.726562 L 13.089844 187.601562 L 100.332031 36.476562 L 274.667969 36.476562 M 281.1875 25.226562 L 93.8125 25.226562 L 0.121094 187.601562 L 93.8125 349.976562 L 281.1875 349.976562 L 374.878906 187.601562 Z M 281.1875 25.226562 " fill-opacity="1" fill-rule="nonzero"/></g><g clip-path="url(#2620193e07)"><g clip-path="url(#2ee5368241)"><g clip-path="url(#026f527e8e)"><path fill="#5e17eb" d="M 311.757812 116.015625 L 311.34375 259.449219 L 186.996094 330.929688 L 63.058594 258.980469 L 63.417969 115.519531 L 187.820312 44.070312 L 311.757812 116.015625 M 321.035156 110.710938 L 187.828125 33.378906 L 54.199219 110.167969 L 53.78125 264.289062 L 186.988281 341.621094 L 320.617188 264.828125 Z M 321.035156 110.710938 " fill-opacity="1" fill-rule="nonzero"/></g></g></g><g clip-path="url(#530ca6d31a)"><path fill="#5e17eb" d="M 122.960938 299.125 L 58.3125 187.375 L 122.960938 75.625 L 252.253906 75.625 L 316.902344 187.375 L 252.253906 299.125 Z M 122.960938 299.125 " fill-opacity="1" fill-rule="nonzero"/></g><g fill="#ffffff" fill-opacity="1"><g transform="translate(135.989204, 258.332245)"><g><path d="M 94.484375 -146.53125 L 94.484375 -117.21875 L 44.046875 -117.21875 L 44.046875 -88.09375 L 92.359375 -88.09375 L 92.359375 -58.78125 L 44.046875 -58.78125 L 44.046875 -29.3125 L 94.484375 -29.3125 L 94.484375 0 L 10.65625 0 L 10.65625 -146.53125 Z M 94.484375 -146.53125 "/></g></g></g></svg>