<?xml version="1.0" encoding="UTF-8"?>
<svg xmlns="http://www.w3.org/2000/svg" xmlns:xlink="http://www.w3.org/1999/xlink" width="500px" height="313px" viewBox="0 0 500 313" version="1.1">
<defs>
<clipPath id="clip1">
  <path d="M 186.398438 86.082031 L 313.617188 86.082031 L 313.617188 226.9375 L 186.398438 226.9375 Z M 186.398438 86.082031 "/>
</clipPath>
</defs>
<g id="surface1">
<path style=" stroke:none;fill-rule:nonzero;fill:rgb(41.960784%,0%,100%);fill-opacity:1;" d="M 115.175781 78.25 L 250 0 L 384.824219 78.25 L 384.824219 234.75 L 250 313 L 115.175781 234.75 Z M 115.175781 78.25 "/>
<g clip-path="url(#clip1)" clip-rule="nonzero">
<path style=" stroke:none;fill-rule:nonzero;fill:rgb(100%,100%,100%);fill-opacity:1;" d="M 302.171875 143.652344 L 302.171875 169.347656 L 221.960938 169.347656 L 221.960938 143.652344 Z M 313.601562 201.367188 L 313.601562 226.917969 L 221.960938 226.917969 C 218.4375 226.917969 214.601562 226.296875 210.441406 225.074219 C 206.25 223.800781 202.390625 221.761719 198.835938 218.910156 C 195.28125 216.074219 192.328125 212.371094 189.957031 207.816406 C 187.585938 203.246094 186.398438 197.679688 186.398438 191.070312 L 186.398438 98.945312 C 186.398438 97.191406 186.71875 95.507812 187.355469 93.933594 C 188.027344 92.371094 188.929688 91.007812 190.078125 89.820312 C 191.195312 88.632812 192.539062 87.710938 194.113281 87.039062 C 195.667969 86.402344 197.351562 86.082031 199.191406 86.082031 L 313.601562 86.082031 L 313.601562 111.632812 L 211.804688 111.632812 L 211.804688 191.070312 C 211.804688 194.402344 212.6875 196.953125 214.441406 198.726562 C 216.210938 200.496094 218.773438 201.367188 222.171875 201.367188 Z M 313.601562 201.367188 "/>
</g>
</g>
</svg>
